<?xml version="1.0" encoding="utf-8"?>
<!-- Generator: Adobe Illustrator 23.1.1, SVG Export Plug-In . SVG Version: 6.00 Build 0)  -->
<svg version="1.1" xmlns="http://www.w3.org/2000/svg" xmlns:xlink="http://www.w3.org/1999/xlink" x="0px" y="0px"
	 viewBox="0 0 111 103" style="enable-background:new 0 0 111 103;" xml:space="preserve">
<style type="text/css">
	.st0{fill:#F1F1F1;}
	.st1{fill:#001941;}
	.st2{fill:url(#SVGID_3_);}
	.st3{fill:#308ECD;}
	.st4{fill:#1955F5;}
	.st5{fill:#004970;}
	.st6{fill:#26262E;}
	.st7{fill:#00F8F9;}
	.st8{fill:#B8B9BB;}
	.st9{fill:#E1E9EC;}
	.st10{fill:#07E170;}
	.st11{fill:#FFFFFF;}
	.st12{fill:none;stroke:#004970;stroke-miterlimit:10;}
	.st13{clip-path:url(#SVGID_5_);}
	.st14{clip-path:url(#SVGID_9_);}
	.st15{fill:#50BEA1;}
	.st16{fill:none;stroke:#E2E2E2;stroke-width:0.5;stroke-miterlimit:10;}
	.st17{opacity:0.5;}
	.st18{fill:none;stroke:#011C40;stroke-width:1.5;stroke-miterlimit:10;}
	.st19{clip-path:url(#SVGID_15_);fill:#308ECD;}
	.st20{clip-path:url(#SVGID_21_);fill:#308ECD;}
	.st21{clip-path:url(#SVGID_27_);fill:#308ECD;}
	.st22{fill:none;stroke:#011C40;stroke-width:1.5;stroke-linejoin:round;stroke-miterlimit:10;}
	.st23{fill:none;stroke:#011C40;stroke-width:1.5;stroke-linecap:round;stroke-linejoin:round;stroke-miterlimit:10;}
	.st24{fill:none;stroke:#011C40;stroke-linejoin:round;stroke-miterlimit:10;}
	.st25{clip-path:url(#SVGID_33_);fill:#308ECD;}
	.st26{clip-path:url(#SVGID_39_);fill:#308ECD;}
	.st27{clip-path:url(#SVGID_45_);fill:#308ECD;}
	.st28{clip-path:url(#SVGID_49_);}
	.st29{clip-path:url(#SVGID_53_);}
	.st30{fill:#004B82;}
	.st31{opacity:0.7;fill:#FFFFFF;}
	.st32{fill:none;stroke:#1A2E35;stroke-linecap:round;stroke-linejoin:round;stroke-miterlimit:10;}
	.st33{fill:#1A2E35;}
	.st34{fill:#1A2E35;stroke:#1A2E35;stroke-linecap:round;stroke-linejoin:round;stroke-miterlimit:10;}
	.st35{opacity:0.5;fill:#FFFFFF;}
	.st36{opacity:0.13;clip-path:url(#XMLID_17_);}
	.st37{fill:none;stroke:#FFFFFF;stroke-linecap:round;stroke-linejoin:round;stroke-miterlimit:10;}
	.st38{clip-path:url(#XMLID_18_);fill:#004B82;}
	.st39{opacity:0.5;clip-path:url(#XMLID_18_);fill:#FFFFFF;}
	.st40{clip-path:url(#XMLID_19_);fill:#004B82;}
	.st41{opacity:0.5;clip-path:url(#XMLID_19_);fill:#FFFFFF;}
	.st42{clip-path:url(#XMLID_20_);fill:#004B82;}
	.st43{opacity:0.5;clip-path:url(#XMLID_20_);fill:#FFFFFF;}
	.st44{fill:#FFFFFF;stroke:#1A2E35;stroke-linecap:round;stroke-linejoin:round;stroke-miterlimit:10;}
	.st45{clip-path:url(#XMLID_21_);fill:#004B82;}
	.st46{opacity:0.5;clip-path:url(#XMLID_21_);fill:#FFFFFF;}
	.st47{clip-path:url(#XMLID_22_);fill:#004B82;}
	.st48{opacity:0.5;clip-path:url(#XMLID_22_);fill:#FFFFFF;}
	.st49{opacity:0.53;clip-path:url(#XMLID_23_);fill:#FFFFFF;}
	.st50{opacity:0.14;clip-path:url(#XMLID_23_);}
	.st51{clip-path:url(#XMLID_23_);fill:none;stroke:#1A2E35;stroke-linecap:round;stroke-linejoin:round;stroke-miterlimit:10;}
	.st52{clip-path:url(#XMLID_24_);fill:#004B82;}
	.st53{opacity:0.5;clip-path:url(#XMLID_24_);fill:#FFFFFF;}
	.st54{opacity:0.53;clip-path:url(#XMLID_25_);fill:#FFFFFF;}
	.st55{opacity:0.14;clip-path:url(#XMLID_25_);}
	.st56{clip-path:url(#XMLID_25_);fill:none;stroke:#1A2E35;stroke-linecap:round;stroke-linejoin:round;stroke-miterlimit:10;}
	.st57{clip-path:url(#XMLID_26_);fill:#004B82;}
	.st58{opacity:0.5;clip-path:url(#XMLID_26_);fill:#FFFFFF;}
	.st59{clip-path:url(#XMLID_27_);fill:#004B82;}
	.st60{opacity:0.5;clip-path:url(#XMLID_27_);fill:#FFFFFF;}
	.st61{opacity:0.53;clip-path:url(#XMLID_28_);fill:#FFFFFF;}
	.st62{clip-path:url(#XMLID_29_);fill:#004B82;}
	.st63{opacity:0.5;clip-path:url(#XMLID_29_);fill:#FFFFFF;}
	.st64{clip-path:url(#XMLID_30_);fill:#004B82;}
	.st65{opacity:0.5;clip-path:url(#XMLID_30_);fill:#FFFFFF;}
	.st66{fill:none;stroke:#1A2E35;stroke-width:2;stroke-linecap:round;stroke-linejoin:round;stroke-miterlimit:10;}
	.st67{fill:none;stroke:#FFFFFF;stroke-width:0.75;stroke-linecap:round;stroke-linejoin:round;stroke-miterlimit:10;}
	.st68{clip-path:url(#XMLID_31_);fill:#004B82;}
	.st69{opacity:0.5;clip-path:url(#XMLID_31_);fill:#FFFFFF;}
	.st70{fill:#004B82;stroke:#1A2E35;stroke-linecap:round;stroke-linejoin:round;stroke-miterlimit:10;}
	.st71{clip-path:url(#SVGID_57_);}
	.st72{fill:#F7C74B;}
	.st73{fill:#5399DB;}
	.st74{fill:#003383;}
	.st75{fill:#011C40;stroke:#FFFFFF;stroke-width:0.5;stroke-miterlimit:10;}
	.st76{fill:#011C40;}
	.st77{fill:none;stroke:#FFFFFF;stroke-width:2;stroke-miterlimit:10;}
	.st78{fill:#FFFFFF;stroke:#011C40;stroke-width:1.5;stroke-miterlimit:10;}
	.st79{fill:#959595;}
	.st80{opacity:0.2;}
	.st81{clip-path:url(#SVGID_63_);fill:#308ECD;}
	.st82{clip-path:url(#SVGID_69_);fill:#308ECD;}
	.st83{fill:#3091D0;}
	.st84{fill:#FFFFFF;stroke:#011C40;stroke-width:1.5;stroke-linejoin:round;stroke-miterlimit:10;}
	.st85{clip-path:url(#SVGID_75_);fill:#308ECD;}
	.st86{fill:none;stroke:#011C40;stroke-width:1.5;stroke-linecap:round;stroke-linejoin:round;stroke-dasharray:2.718,2.718;}
	.st87{clip-path:url(#SVGID_81_);fill:#308ECD;}
	.st88{clip-path:url(#SVGID_85_);fill:#308ECD;}
	.st89{clip-path:url(#SVGID_89_);fill:#308ECD;}
	.st90{clip-path:url(#SVGID_95_);fill:#308ECD;}
	.st91{clip-path:url(#SVGID_101_);fill:#308ECD;}
	.st92{clip-path:url(#SVGID_107_);fill:#308ECD;}
	.st93{clip-path:url(#SVGID_113_);fill:#308ECD;}
	.st94{clip-path:url(#SVGID_119_);fill:#308ECD;}
	.st95{clip-path:url(#SVGID_125_);fill:#308ECD;}
	.st96{clip-path:url(#SVGID_131_);fill:#308ECD;}
	.st97{clip-path:url(#SVGID_137_);fill:#308ECD;}
	.st98{clip-path:url(#SVGID_143_);fill:#308ECD;}
	.st99{clip-path:url(#SVGID_147_);fill:#308ECD;}
	.st100{fill:none;stroke:#FFFFFF;stroke-width:2;stroke-linecap:round;stroke-linejoin:round;stroke-miterlimit:10;}
	.st101{clip-path:url(#SVGID_149_);}
	.st102{clip-path:url(#SVGID_153_);}
	.st103{fill:none;stroke:#011C40;stroke-width:2.6;stroke-linecap:round;stroke-linejoin:round;stroke-miterlimit:10;}
	.st104{fill:#FFFFFF;stroke:#011C40;stroke-width:2.6;stroke-linecap:round;stroke-linejoin:round;stroke-miterlimit:10;}
</style>
<g id="Layer_1">
</g>
<g id="Layer_2">
	<g>
		<g>
			<defs>
				<circle id="SVGID_52_" cx="-342.1" cy="247.8" r="203.6"/>
			</defs>
			<clipPath id="SVGID_2_">
				<use xlink:href="#SVGID_52_"  style="overflow:visible;"/>
			</clipPath>
			<g style="clip-path:url(#SVGID_2_);">
				<g>
					<defs>
						<rect id="SVGID_54_" x="-622.8" y="32.9" width="640.2" height="426.8"/>
					</defs>
					<clipPath id="SVGID_3_">
						<use xlink:href="#SVGID_54_"  style="overflow:visible;"/>
					</clipPath>
					<g style="clip-path:url(#SVGID_3_);">
						
							<image style="overflow:visible;" width="4896" height="3264" xlink:href="3A566B453BC21854.jpg"  transform="matrix(0.1308 0 0 0.1308 -622.8178 32.8503)">
						</image>
					</g>
				</g>
			</g>
		</g>
	</g>
	<g>
		<path class="st76" d="M107.5,100.8h-97c-0.7,0-1.3-0.6-1.3-1.3s0.6-1.3,1.3-1.3h97c0.7,0,1.3,0.6,1.3,1.3S108.2,100.8,107.5,100.8
			z"/>
	</g>
	<g>
		<path class="st76" d="M103.1,100.3c-0.7,0-1.3-0.6-1.3-1.3V10.8H43.4v55.7c0,0.7-0.6,1.3-1.3,1.3s-1.3-0.6-1.3-1.3v-57
			c0-0.7,0.6-1.3,1.3-1.3h61c0.7,0,1.3,0.6,1.3,1.3V99C104.4,99.7,103.8,100.3,103.1,100.3z"/>
	</g>
	<g>
		<path class="st76" d="M42.1,100.3c-0.7,0-1.3-0.6-1.3-1.3v-9.5c0-0.7,0.6-1.3,1.3-1.3s1.3,0.6,1.3,1.3V99
			C43.4,99.7,42.8,100.3,42.1,100.3z"/>
	</g>
	<g>
		<path class="st76" d="M92.1,10.8h-39c-0.7,0-1.3-0.6-1.3-1.3v-7c0-0.7,0.6-1.3,1.3-1.3h39c0.7,0,1.3,0.6,1.3,1.3v7
			C93.4,10.2,92.8,10.8,92.1,10.8z M54.4,8.2h36.4V3.8H54.4V8.2z"/>
	</g>
	<g>
		<g>
			<rect x="52.6" y="18.5" class="st3" width="10" height="6"/>
		</g>
		<g>
			<rect x="67.6" y="18.5" class="st3" width="10" height="6"/>
		</g>
		<g>
			<rect x="82.6" y="18.5" class="st3" width="10" height="6"/>
		</g>
	</g>
	<g>
		<g>
			<rect x="52.6" y="31.5" class="st3" width="10" height="6"/>
		</g>
		<g>
			<rect x="67.6" y="31.5" class="st3" width="10" height="6"/>
		</g>
		<g>
			<rect x="82.6" y="31.5" class="st3" width="10" height="6"/>
		</g>
	</g>
	<g>
		<g>
			<rect x="52.6" y="44.5" class="st3" width="10" height="6"/>
		</g>
		<g>
			<rect x="67.6" y="44.5" class="st3" width="10" height="6"/>
		</g>
		<g>
			<rect x="82.6" y="44.5" class="st3" width="10" height="6"/>
		</g>
	</g>
	<g>
		<g>
			<rect x="52.6" y="57.5" class="st3" width="10" height="6"/>
		</g>
		<g>
			<rect x="67.6" y="57.5" class="st3" width="10" height="6"/>
		</g>
		<g>
			<rect x="82.6" y="57.5" class="st3" width="10" height="6"/>
		</g>
	</g>
	<g>
		<g>
			<rect x="52.5" y="70.5" class="st3" width="10" height="6"/>
		</g>
		<g>
			<rect x="67.5" y="70.5" class="st3" width="10" height="6"/>
		</g>
		<g>
			<rect x="82.5" y="70.5" class="st3" width="10" height="6"/>
		</g>
	</g>
	<g>
		<path class="st76" d="M93.1,100.3H52c-0.7,0-1.3-0.6-1.3-1.3V86.2c0-0.7,0.6-1.3,1.3-1.3h41.1c0.7,0,1.3,0.6,1.3,1.3V99
			C94.4,99.7,93.8,100.3,93.1,100.3z M53.3,97.7h38.5V87.5H53.3V97.7z"/>
	</g>
	<g>
		<path class="st76" d="M32.8,93.9c-8.8,0-16-7.2-16-16s7.2-16,16-16s16,7.2,16,16S41.6,93.9,32.8,93.9z M32.8,64.6
			c-7.4,0-13.4,6-13.4,13.4s6,13.4,13.4,13.4s13.4-6,13.4-13.4S40.2,64.6,32.8,64.6z"/>
	</g>
	<g>
		<path class="st76" d="M32.5,100.8c-0.7,0-1.3-0.6-1.3-1.3v-24c0-0.7,0.6-1.3,1.3-1.3s1.3,0.6,1.3,1.3v24
			C33.8,100.2,33.2,100.8,32.5,100.8z"/>
	</g>
	<g>
		<path class="st76" d="M32.5,87.8c-0.5,0-0.9-0.3-1.2-0.7c-0.3-0.6-0.1-1.4,0.6-1.7l6-3c0.6-0.3,1.4-0.1,1.7,0.6
			c0.3,0.6,0.1,1.4-0.6,1.7l-6,3C32.9,87.8,32.7,87.8,32.5,87.8z"/>
	</g>
	<g>
		<path class="st76" d="M32.5,82.8c-0.2,0-0.4,0-0.6-0.1l-6-3c-0.6-0.3-0.9-1.1-0.6-1.7c0.3-0.6,1.1-0.9,1.7-0.6l6,3
			c0.6,0.3,0.9,1.1,0.6,1.7C33.4,82.5,33,82.8,32.5,82.8z"/>
	</g>
	<g>
		<path class="st76" d="M14.6,95.7C7.6,95.7,1.9,90,1.9,83s5.7-12.7,12.7-12.7c0.3,0,0.6,0,1,0c0.7,0.1,1.3,0.7,1.2,1.4
			c-0.1,0.7-0.7,1.3-1.4,1.2c-0.3,0-0.5,0-0.8,0C9,72.9,4.5,77.4,4.5,83S9,93.1,14.6,93.1c1.9,0,3.8-0.6,5.5-1.6
			c0.6-0.4,1.4-0.2,1.8,0.4s0.2,1.4-0.4,1.8C19.4,95,17,95.7,14.6,95.7z"/>
	</g>
	<g>
		<path class="st76" d="M14.3,100.8c-0.7,0-1.3-0.6-1.3-1.3V81c0-0.7,0.6-1.3,1.3-1.3s1.3,0.6,1.3,1.3v18.5
			C15.6,100.2,15,100.8,14.3,100.8z"/>
	</g>
	<g>
		<path class="st76" d="M14.3,90c-0.2,0-0.4,0-0.6-0.1l-4.7-2.3c-0.6-0.3-0.9-1.1-0.6-1.7c0.3-0.6,1.1-0.9,1.7-0.6l4.7,2.3
			c0.6,0.3,0.9,1.1,0.6,1.7C15.3,89.8,14.8,90,14.3,90z"/>
	</g>
</g>
<g id="Layer_3">
</g>
<g id="Layer_4">
</g>
</svg>
