<?xml version="1.0" encoding="utf-8"?>
<!-- Generator: Adobe Illustrator 23.1.1, SVG Export Plug-In . SVG Version: 6.00 Build 0)  -->
<svg version="1.1" xmlns="http://www.w3.org/2000/svg" xmlns:xlink="http://www.w3.org/1999/xlink" x="0px" y="0px"
	 viewBox="0 0 83 83" style="enable-background:new 0 0 83 83;" xml:space="preserve">
<style type="text/css">
	.st0{fill:#F1F1F1;}
	.st1{fill:#001941;}
	.st2{fill:url(#SVGID_3_);}
	.st3{fill:#308ECD;}
	.st4{fill:#1955F5;}
	.st5{fill:#004970;}
	.st6{fill:#26262E;}
	.st7{fill:#00F8F9;}
	.st8{fill:#B8B9BB;}
	.st9{fill:#E1E9EC;}
	.st10{fill:#07E170;}
	.st11{fill:#FFFFFF;}
	.st12{fill:none;stroke:#004970;stroke-miterlimit:10;}
	.st13{clip-path:url(#SVGID_5_);}
	.st14{clip-path:url(#SVGID_9_);}
	.st15{fill:#50BEA1;}
	.st16{fill:none;stroke:#E2E2E2;stroke-width:0.5;stroke-miterlimit:10;}
	.st17{opacity:0.5;}
	.st18{fill:none;stroke:#011C40;stroke-width:1.5;stroke-miterlimit:10;}
	.st19{clip-path:url(#SVGID_15_);fill:#308ECD;}
	.st20{clip-path:url(#SVGID_21_);fill:#308ECD;}
	.st21{clip-path:url(#SVGID_27_);fill:#308ECD;}
	.st22{fill:none;stroke:#011C40;stroke-width:1.5;stroke-linejoin:round;stroke-miterlimit:10;}
	.st23{fill:none;stroke:#011C40;stroke-width:1.5;stroke-linecap:round;stroke-linejoin:round;stroke-miterlimit:10;}
	.st24{fill:none;stroke:#011C40;stroke-linejoin:round;stroke-miterlimit:10;}
	.st25{clip-path:url(#SVGID_33_);fill:#308ECD;}
	.st26{clip-path:url(#SVGID_39_);fill:#308ECD;}
	.st27{clip-path:url(#SVGID_45_);fill:#308ECD;}
	.st28{clip-path:url(#SVGID_49_);}
	.st29{clip-path:url(#SVGID_53_);}
	.st30{fill:#004B82;}
	.st31{opacity:0.7;fill:#FFFFFF;}
	.st32{fill:none;stroke:#1A2E35;stroke-linecap:round;stroke-linejoin:round;stroke-miterlimit:10;}
	.st33{fill:#1A2E35;}
	.st34{fill:#1A2E35;stroke:#1A2E35;stroke-linecap:round;stroke-linejoin:round;stroke-miterlimit:10;}
	.st35{opacity:0.5;fill:#FFFFFF;}
	.st36{opacity:0.13;clip-path:url(#XMLID_17_);}
	.st37{fill:none;stroke:#FFFFFF;stroke-linecap:round;stroke-linejoin:round;stroke-miterlimit:10;}
	.st38{clip-path:url(#XMLID_18_);fill:#004B82;}
	.st39{opacity:0.5;clip-path:url(#XMLID_18_);fill:#FFFFFF;}
	.st40{clip-path:url(#XMLID_19_);fill:#004B82;}
	.st41{opacity:0.5;clip-path:url(#XMLID_19_);fill:#FFFFFF;}
	.st42{clip-path:url(#XMLID_20_);fill:#004B82;}
	.st43{opacity:0.5;clip-path:url(#XMLID_20_);fill:#FFFFFF;}
	.st44{fill:#FFFFFF;stroke:#1A2E35;stroke-linecap:round;stroke-linejoin:round;stroke-miterlimit:10;}
	.st45{clip-path:url(#XMLID_21_);fill:#004B82;}
	.st46{opacity:0.5;clip-path:url(#XMLID_21_);fill:#FFFFFF;}
	.st47{clip-path:url(#XMLID_22_);fill:#004B82;}
	.st48{opacity:0.5;clip-path:url(#XMLID_22_);fill:#FFFFFF;}
	.st49{opacity:0.53;clip-path:url(#XMLID_23_);fill:#FFFFFF;}
	.st50{opacity:0.14;clip-path:url(#XMLID_23_);}
	.st51{clip-path:url(#XMLID_23_);fill:none;stroke:#1A2E35;stroke-linecap:round;stroke-linejoin:round;stroke-miterlimit:10;}
	.st52{clip-path:url(#XMLID_24_);fill:#004B82;}
	.st53{opacity:0.5;clip-path:url(#XMLID_24_);fill:#FFFFFF;}
	.st54{opacity:0.53;clip-path:url(#XMLID_25_);fill:#FFFFFF;}
	.st55{opacity:0.14;clip-path:url(#XMLID_25_);}
	.st56{clip-path:url(#XMLID_25_);fill:none;stroke:#1A2E35;stroke-linecap:round;stroke-linejoin:round;stroke-miterlimit:10;}
	.st57{clip-path:url(#XMLID_26_);fill:#004B82;}
	.st58{opacity:0.5;clip-path:url(#XMLID_26_);fill:#FFFFFF;}
	.st59{clip-path:url(#XMLID_27_);fill:#004B82;}
	.st60{opacity:0.5;clip-path:url(#XMLID_27_);fill:#FFFFFF;}
	.st61{opacity:0.53;clip-path:url(#XMLID_28_);fill:#FFFFFF;}
	.st62{clip-path:url(#XMLID_29_);fill:#004B82;}
	.st63{opacity:0.5;clip-path:url(#XMLID_29_);fill:#FFFFFF;}
	.st64{clip-path:url(#XMLID_30_);fill:#004B82;}
	.st65{opacity:0.5;clip-path:url(#XMLID_30_);fill:#FFFFFF;}
	.st66{fill:none;stroke:#1A2E35;stroke-width:2;stroke-linecap:round;stroke-linejoin:round;stroke-miterlimit:10;}
	.st67{fill:none;stroke:#FFFFFF;stroke-width:0.75;stroke-linecap:round;stroke-linejoin:round;stroke-miterlimit:10;}
	.st68{clip-path:url(#XMLID_31_);fill:#004B82;}
	.st69{opacity:0.5;clip-path:url(#XMLID_31_);fill:#FFFFFF;}
	.st70{fill:#004B82;stroke:#1A2E35;stroke-linecap:round;stroke-linejoin:round;stroke-miterlimit:10;}
	.st71{clip-path:url(#SVGID_57_);}
	.st72{fill:#F7C74B;}
	.st73{fill:#5399DB;}
	.st74{fill:#003383;}
	.st75{fill:#011C40;stroke:#FFFFFF;stroke-width:0.5;stroke-miterlimit:10;}
	.st76{fill:#011C40;}
	.st77{fill:none;stroke:#FFFFFF;stroke-width:2;stroke-miterlimit:10;}
	.st78{fill:#FFFFFF;stroke:#011C40;stroke-width:1.5;stroke-miterlimit:10;}
	.st79{fill:#959595;}
	.st80{opacity:0.2;}
	.st81{clip-path:url(#SVGID_63_);fill:#308ECD;}
	.st82{clip-path:url(#SVGID_69_);fill:#308ECD;}
	.st83{fill:#3091D0;}
	.st84{fill:#FFFFFF;stroke:#011C40;stroke-width:1.5;stroke-linejoin:round;stroke-miterlimit:10;}
	.st85{clip-path:url(#SVGID_75_);fill:#308ECD;}
	.st86{fill:none;stroke:#011C40;stroke-width:1.5;stroke-linecap:round;stroke-linejoin:round;stroke-dasharray:2.718,2.718;}
	.st87{clip-path:url(#SVGID_81_);fill:#308ECD;}
	.st88{clip-path:url(#SVGID_85_);fill:#308ECD;}
	.st89{clip-path:url(#SVGID_89_);fill:#308ECD;}
	.st90{clip-path:url(#SVGID_95_);fill:#308ECD;}
	.st91{clip-path:url(#SVGID_101_);fill:#308ECD;}
	.st92{clip-path:url(#SVGID_107_);fill:#308ECD;}
	.st93{clip-path:url(#SVGID_113_);fill:#308ECD;}
	.st94{clip-path:url(#SVGID_119_);fill:#308ECD;}
	.st95{clip-path:url(#SVGID_125_);fill:#308ECD;}
	.st96{clip-path:url(#SVGID_131_);fill:#308ECD;}
	.st97{clip-path:url(#SVGID_137_);fill:#308ECD;}
	.st98{clip-path:url(#SVGID_143_);fill:#308ECD;}
	.st99{clip-path:url(#SVGID_147_);fill:#308ECD;}
	.st100{fill:none;stroke:#FFFFFF;stroke-width:2;stroke-linecap:round;stroke-linejoin:round;stroke-miterlimit:10;}
	.st101{clip-path:url(#SVGID_149_);}
	.st102{clip-path:url(#SVGID_153_);}
	.st103{fill:none;stroke:#011C40;stroke-width:2.6;stroke-linecap:round;stroke-linejoin:round;stroke-miterlimit:10;}
	.st104{fill:#FFFFFF;stroke:#011C40;stroke-width:2.6;stroke-linecap:round;stroke-linejoin:round;stroke-miterlimit:10;}
</style>
<g id="Layer_1">
</g>
<g id="Layer_2">
	<g>
		<g>
			<defs>
				<circle id="SVGID_52_" cx="-241.1" cy="227.8" r="203.6"/>
			</defs>
			<clipPath id="SVGID_2_">
				<use xlink:href="#SVGID_52_"  style="overflow:visible;"/>
			</clipPath>
			<g style="clip-path:url(#SVGID_2_);">
				<g>
					<defs>
						<rect id="SVGID_54_" x="-521.8" y="12.9" width="640.2" height="426.8"/>
					</defs>
					<clipPath id="SVGID_3_">
						<use xlink:href="#SVGID_54_"  style="overflow:visible;"/>
					</clipPath>
					<g style="clip-path:url(#SVGID_3_);">
						
							<image style="overflow:visible;" width="4896" height="3264" xlink:href="3A5ED651F5D06C9F.jpg"  transform="matrix(0.1308 0 0 0.1308 -521.8178 12.8503)">
						</image>
					</g>
				</g>
			</g>
		</g>
	</g>
	<polyline class="st103" points="60.3,13.9 60.3,6.7 15,6.7 15,68.6 22.2,68.6 	"/>
	<polygon class="st103" points="68,64.1 68,14.4 22.7,14.4 22.7,76.3 55.7,76.3 	"/>
	<polyline class="st103" points="55.9,76.3 55.9,64.1 68,64.1 	"/>
	<rect x="29.4" y="48.7" class="st3" width="32" height="5.4"/>
	<rect x="29.4" y="56.5" class="st3" width="16.6" height="5.4"/>
	<g>
		<path class="st3" d="M47.3,42.7H45v-2.4c-1.4-0.2-2.6-0.7-3.4-1.6c-0.8-0.9-1.3-1.9-1.4-2.9l2.8-0.7c0.1,0.8,0.4,1.4,0.9,1.9
			c0.5,0.5,1.3,0.8,2.2,0.8c0.7,0,1.3-0.2,1.7-0.5s0.6-0.7,0.6-1.2c0-0.8-0.6-1.3-1.7-1.6l-2.1-0.4c-1.2-0.3-2.2-0.8-2.9-1.5
			c-0.7-0.7-1-1.6-1-2.7c0-1.2,0.4-2.1,1.2-3c0.8-0.8,1.8-1.3,3-1.5V23h2.3v2.5c1.2,0.2,2.1,0.7,2.7,1.4s1.1,1.5,1.2,2.4L48.6,30
			c-0.1-0.5-0.3-1-0.7-1.4c-0.4-0.4-1-0.6-1.8-0.6c-0.7,0-1.2,0.2-1.6,0.5c-0.4,0.3-0.6,0.8-0.6,1.2c0,0.8,0.5,1.3,1.5,1.5l2,0.5
			c1.4,0.3,2.4,0.8,3.1,1.6c0.7,0.8,1,1.7,1,2.7c0,1.1-0.4,2-1.1,2.8c-0.7,0.8-1.8,1.3-3,1.5V42.7z"/>
	</g>
</g>
<g id="Layer_3">
</g>
<g id="Layer_4">
</g>
</svg>
